<svg width="1013" height="213" viewBox="0 0 1013 213" fill="none" xmlns="http://www.w3.org/2000/svg">
<rect x="497.541" y="37" width="496" height="139" fill="#E4E4E4"/>
<rect x="494.392" y="31.6622" width="8.63513" height="143.919" fill="#251714"/>
<rect x="494.392" y="31.6622" width="2.87838" height="143.919" fill="#817F8A"/>
<rect x="500.149" y="31.6622" width="2.87838" height="143.919" fill="#817F8A"/>
<circle cx="498.709" cy="18.7095" r="18.7095" fill="#281710"/>
<rect x="998.027" y="180.919" width="8.63513" height="143.919" transform="rotate(180 998.027 180.919)" fill="#251714"/>
<rect x="998.027" y="180.919" width="2.87838" height="143.919" transform="rotate(180 998.027 180.919)" fill="#817F8A"/>
<rect x="992.27" y="180.919" width="2.87838" height="143.919" transform="rotate(180 992.27 180.919)" fill="#817F8A"/>
<circle cx="993.709" cy="193.872" r="18.7095" transform="rotate(180 993.709 193.872)" fill="#281710"/>
<path d="M521.302 161.302V149V136.698H533.604V149V161.302H521.302ZM545.906 149V136.698H558.208V149H545.906ZM644.321 161.302H656.623V173.604H644.321H632.019H619.717H607.415H595.113H582.811H570.509H558.208H545.906V161.302H558.208H570.509H582.811H595.113V149H582.811H570.509V136.698H558.208V124.396V112.094V99.7925H545.906V112.094V124.396V136.698H533.604V124.396V112.094V99.7925V87.4906H545.906H558.208V75.1887V62.8868H545.906H533.604H521.302V50.585H533.604H545.906H558.208H570.509H582.811V38.2831H595.113V50.585H607.415H619.717H632.019H644.321H656.623V62.8868H644.321H632.019H619.717V75.1887H607.415V62.8868H595.113H582.811H570.509V75.1887V87.4906H582.811H595.113V75.1887H607.415V87.4906H619.717H632.019H644.321H656.623V99.7925H644.321H632.019H619.717H607.415V112.094H619.717H632.019H644.321V124.396H632.019H619.717H607.415V136.698H619.717H632.019H644.321V149H632.019H619.717H607.415V161.302H619.717H632.019H644.321ZM582.811 136.698H595.113V124.396H582.811H570.509V136.698H582.811ZM582.811 112.094H595.113V99.7925H582.811H570.509V112.094H582.811ZM681.178 112.094V99.7925V87.4906H693.48V99.7925V112.094H681.178ZM804.197 161.302H816.499V173.604H804.197H791.895H779.593H767.291H754.99H742.688H730.386H718.084H705.782H693.48H681.178V161.302H693.48H705.782H718.084H730.386H742.688V149V136.698V124.396H730.386H718.084H705.782V112.094H718.084H730.386H742.688V99.7925V87.4906V75.1887H730.386H718.084H705.782V87.4906H693.48V75.1887V62.8868V50.585V38.2831H705.782V50.585V62.8868H718.084H730.386H742.688V50.585V38.2831H754.99V50.585V62.8868H767.291H779.593H791.895H804.197V75.1887H791.895H779.593H767.291H754.99V87.4906V99.7925V112.094H767.291H779.593H791.895H804.197V124.396H791.895H779.593H767.291H754.99V136.698V149V161.302H767.291H779.593H791.895H804.197ZM951.772 173.604H939.47H927.168H914.866V161.302V149V136.698V124.396H927.168V112.094H914.866H902.564H890.262V124.396H902.564V136.698V149V161.302V173.604H890.262H877.96H865.658H853.357V161.302V149V136.698H841.055V124.396H853.357H865.658H877.96V112.094H865.658H853.357H841.055V99.7925H853.357H865.658H877.96H890.262H902.564V87.4906H914.866V75.1887V62.8868V50.585V38.2831H927.168H939.47H951.772H964.073V50.585V62.8868V75.1887V87.4906H951.772V99.7925H964.073H976.375V112.094H964.073H951.772H939.47V124.396H951.772H964.073H976.375V136.698H964.073V149V161.302V173.604H951.772ZM939.47 161.302H951.772V149V136.698H939.47H927.168V149V161.302H939.47ZM877.96 161.302H890.262V149V136.698H877.96H865.658V149V161.302H877.96ZM927.168 99.7925H939.47V87.4906H927.168H914.866V99.7925H927.168ZM939.47 75.1887H951.772V62.8868V50.585H939.47H927.168V62.8868V75.1887H939.47ZM902.564 87.4906H890.262H877.96H865.658H853.357V75.1887V62.8868V50.585V38.2831H865.658H877.96H890.262H902.564V50.585V62.8868V75.1887V87.4906ZM877.96 75.1887H890.262V62.8868V50.585H877.96H865.658V62.8868V75.1887H877.96Z" fill="black"/>
<path d="M135.321 161.302H147.623V173.604H135.321H123.019V161.302H135.321ZM24.6038 161.302H36.9056V173.604H24.6038H12.3019V161.302H24.6038ZM123.019 161.302H110.717V149H98.415H86.1132H73.8113H61.5094H49.2075V161.302H36.9056V149H24.6038V136.698V124.396V112.094V99.7925V87.4906H36.9056H49.2075H61.5094H73.8113H86.1132H98.415H110.717H123.019H135.321V99.7925V112.094V124.396V136.698V149H123.019V161.302ZM110.717 136.698H123.019V124.396H110.717H98.415H86.1132H73.8113H61.5094H49.2075H36.9056V136.698H49.2075H61.5094H73.8113H86.1132H98.415H110.717ZM110.717 112.094H123.019V99.7925H110.717H98.415H86.1132H73.8113H61.5094H49.2075H36.9056V112.094H49.2075H61.5094H73.8113H86.1132H98.415H110.717ZM123.019 75.1887H110.717H98.415H86.1132H73.8113H61.5094H49.2075H36.9056H24.6038V62.8868V50.585V38.2831H36.9056H49.2075H61.5094H73.8113H86.1132H98.415H110.717H123.019H135.321V50.585V62.8868V75.1887H123.019ZM110.717 62.8868H123.019V50.585H110.717H98.415H86.1132H73.8113H61.5094H49.2075H36.9056V62.8868H49.2075H61.5094H73.8113H86.1132H98.415H110.717ZM295.197 149H307.499V161.302H295.197H282.895H270.593H258.291H245.99H233.688H221.386H209.084H196.782H184.48H172.178V149H184.48H196.782H209.084H221.386H233.688V136.698V124.396V112.094V99.7925V87.4906V75.1887V62.8868H221.386H209.084H196.782H184.48V50.585H196.782H209.084H221.386H233.688H245.99H258.291H270.593H282.895H295.197V62.8868H282.895H270.593H258.291H245.99V75.1887V87.4906V99.7925V112.094V124.396V136.698V149H258.291H270.593H282.895H295.197ZM455.073 173.604H442.772H430.47H418.168H405.866H393.564H381.262V161.302H393.564H405.866V149H393.564V136.698V124.396V112.094H405.866H418.168H430.47H442.772H455.073H467.375V124.396V136.698V149H455.073V161.302H467.375V173.604H455.073ZM430.47 161.302H442.772V149H430.47H418.168V161.302H430.47ZM356.658 173.604H344.357H332.055V161.302V149V136.698V124.396H344.357H356.658H368.96V136.698V149V161.302V173.604H356.658ZM356.658 161.302V149V136.698H344.357V149V161.302H356.658ZM442.772 136.698H455.073V124.396H442.772H430.47H418.168H405.866V136.698H418.168H430.47H442.772ZM393.564 112.094H381.262V99.7925H393.564V112.094ZM455.073 99.7925H442.772H430.47H418.168H405.866H393.564V87.4906V75.1887H405.866V87.4906H418.168H430.47H442.772V75.1887H455.073V87.4906H467.375V99.7925H455.073ZM356.658 87.4906H368.96V99.7925H356.658H344.357H332.055V87.4906H344.357H356.658ZM455.073 75.1887V62.8868H467.375V75.1887H455.073ZM442.772 75.1887H430.47V62.8868H442.772V75.1887ZM405.866 75.1887V62.8868H418.168V75.1887H405.866ZM393.564 75.1887H381.262V62.8868H393.564V75.1887ZM356.658 62.8868H368.96V75.1887H356.658H344.357H332.055V62.8868H344.357H356.658ZM455.073 62.8868H442.772V50.585H455.073V62.8868ZM430.47 62.8868H418.168V50.585H405.866H393.564H381.262V38.2831H393.564H405.866H418.168H430.47V50.585V62.8868ZM455.073 50.585V38.2831H467.375V50.585H455.073ZM356.658 38.2831H368.96V50.585H356.658H344.357H332.055V38.2831H344.357H356.658Z" fill="black"/>
</svg>
